<?xml version="1.0" encoding="utf-8"?>
<!-- Generator: Adobe Illustrator 26.3.1, SVG Export Plug-In . SVG Version: 6.00 Build 0)  -->
<svg version="1.1" id="Layer_1" xmlns="http://www.w3.org/2000/svg" xmlns:xlink="http://www.w3.org/1999/xlink" x="0px" y="0px"
	 viewBox="0 0 34 34" style="enable-background:new 0 0 34 34;" xml:space="preserve">
<style type="text/css">
	.st0{clip-path:url(#SVGID_00000044142429962488581550000007795932398986008731_);}
	.st1{fill:#FFFFFF;}
</style>
<g>
	<g>
		<g>
			<defs>
				<path id="SVGID_1_" d="M30.3,7.3L18.8,0.6c-1.1-0.6-2.4-0.6-3.5,0L3.7,7.3c-1.1,0.6-1.8,1.8-1.8,3v13.4c0,1.3,0.7,2.4,1.8,3
					l11.6,6.7c1.1,0.6,2.4,0.6,3.5,0l11.6-6.7c1.1-0.6,1.8-1.8,1.8-3V10.3C32.1,9.1,31.4,7.9,30.3,7.3z"/>
			</defs>
			<clipPath id="SVGID_00000173849980816139947190000018434926887818770838_">
				<use xlink:href="#SVGID_1_"  style="overflow:visible;"/>
			</clipPath>
			<g style="clip-path:url(#SVGID_00000173849980816139947190000018434926887818770838_);">
				<g>
					<defs>
						<rect id="SVGID_00000054950104029491897290000011511611601313889957_" x="-3.1" y="-4.9" width="40.2" height="43.8"/>
					</defs>
					<clipPath id="SVGID_00000011720666722389622870000010602090543257330048_">
						<use xlink:href="#SVGID_00000054950104029491897290000011511611601313889957_"  style="overflow:visible;"/>
					</clipPath>
					<g style="clip-path:url(#SVGID_00000011720666722389622870000010602090543257330048_);">
						
							<image style="overflow:visible;" width="85" height="93" xlink:href="2122F062.jpg"  transform="matrix(0.48 0 0 0.48 -3.36 -5.28)">
						</image>
					</g>
				</g>
			</g>
		</g>
	</g>
	<path class="st1" d="M21.3,13.3c0-0.1,0-0.3,0.2-0.4c0.1-0.2,0.3-0.2,0.5-0.2h1.9c0.2,0,0.4-0.2,0.4-0.4v-2.1
		c0-0.2-0.2-0.4-0.4-0.4h-2.1c-0.2,0-0.4,0.2-0.4,0.4V12c0,0.1,0,0.3-0.2,0.4c-0.1,0.1-0.3,0.2-0.4,0.2h-1.9c-0.2,0-0.4,0.2-0.4,0.4
		v1.9c0,0.1,0,0.3-0.2,0.4c-0.1,0.1-0.3,0.2-0.4,0.2h-1.8c-0.1,0-0.3-0.1-0.4-0.2c-0.1-0.1-0.2-0.3-0.2-0.4v-1.9
		c0-0.2-0.2-0.4-0.4-0.4h-1.9c-0.1,0-0.3-0.1-0.4-0.2c-0.1-0.1-0.2-0.3-0.2-0.4v-1.9c0-0.2-0.2-0.4-0.4-0.4h-2.1
		c-0.2,0-0.4,0.2-0.4,0.4v2.1c0,0.2,0.2,0.4,0.4,0.4H12c0.1,0,0.3,0.1,0.5,0.2c0.2,0.2,0.2,0.5,0.2,0.5c0,0,0,0,0,0v1.5
		c0,0.1,0,0.3-0.2,0.4c-0.1,0.1-0.3,0.2-0.4,0.2h-1.9c-0.2,0-0.4,0.2-0.4,0.4v1.9V18v3.7v0.1v2c0,0.2,0.2,0.4,0.4,0.4h2.1
		c0.2,0,0.4-0.2,0.4-0.4v-2v-0.1V18v-0.2v-1.7c0-0.1,0-0.3,0.2-0.4c0.1-0.2,0.3-0.2,0.5-0.2h1.6c0.1,0,0.3,0.1,0.5,0.2
		c0.2,0.2,0.2,0.5,0.2,0.5c0,0,0,0,0,0V18c0,0.2,0.2,0.4,0.4,0.4H18c0.2,0,0.4-0.2,0.4-0.4v-1.9c0-0.1,0-0.3,0.2-0.4
		c0.1-0.2,0.3-0.2,0.5-0.2h1.6c0.1,0,0.3,0.1,0.5,0.2c0.2,0.2,0.2,0.5,0.2,0.5c0,0,0,0,0,0v1.6V18v3.7v0.1v2c0,0.2,0.2,0.4,0.4,0.4
		h2.1c0.2,0,0.4-0.2,0.4-0.4v-2v-0.1V18v-0.2V16c0-0.2-0.2-0.4-0.4-0.4h-1.9c-0.1,0-0.3-0.1-0.4-0.2c-0.1-0.1-0.2-0.3-0.2-0.4V13.3z
		"/>
</g>
</svg>
